<svg xmlns="http://www.w3.org/2000/svg" viewBox="0 0 100 100">
  <defs><linearGradient id="g" x1="0%" y1="0%" x2="100%" y2="100%"><stop offset="0%" stop-color="#9B62FF"/><stop offset="100%" stop-color="#5B03FF"/></linearGradient></defs>
  <rect x="5" y="25" width="20" height="50" rx="3" fill="none" stroke="url(#g)" stroke-width="1.5" opacity="0.3"/>
  <rect x="75" y="25" width="20" height="50" rx="3" fill="none" stroke="url(#g)" stroke-width="1.5" opacity="0.3"/>
  <rect x="28" y="18" width="44" height="64" rx="4" fill="url(#g)" opacity="0.15"/>
  <rect x="28" y="18" width="44" height="64" rx="4" fill="none" stroke="url(#g)" stroke-width="2.5"/>
  <rect x="34" y="24" width="32" height="24" rx="3" fill="url(#g)" opacity="0.3"/>
  <path d="M40 42l8-10 6 6 10-10 6 14H40z" fill="url(#g)" opacity="0.5"/>
  <rect x="34" y="54" width="28" height="4" rx="2" fill="url(#g)" opacity="0.7"/>
  <rect x="34" y="62" width="22" height="3" rx="1" fill="url(#g)" opacity="0.5"/>
  <path d="M14 50l-6-6v12z" fill="url(#g)" opacity="0.6"/>
  <path d="M86 50l6-6v12z" fill="url(#g)" opacity="0.6"/>
</svg>