<svg xmlns="http://www.w3.org/2000/svg" viewBox="0 0 100 100">
  <defs><linearGradient id="g" x1="0%" y1="0%" x2="100%" y2="100%"><stop offset="0%" stop-color="#9B62FF"/><stop offset="100%" stop-color="#5B03FF"/></linearGradient></defs>
  <rect x="20" y="20" width="60" height="50" rx="4" fill="none" stroke="url(#g)" stroke-width="2"/>
  <rect x="25" y="25" width="50" height="25" rx="2" fill="url(#g)" opacity="0.2"/>
  <path d="M30 44l10-12 8 8 12-10 10 14H30z" fill="url(#g)" opacity="0.5"/>
  <rect x="25" y="55" width="30" height="4" rx="2" fill="url(#g)" opacity="0.7"/>
  <rect x="25" y="62" width="22" height="3" rx="1" fill="url(#g)" opacity="0.4"/>
  <path d="M10 45l-5-5v10z" fill="url(#g)" opacity="0.5"/>
  <path d="M90 45l5-5v10z" fill="url(#g)" opacity="0.5"/>
  <circle cx="40" cy="82" r="3" fill="url(#g)"/>
  <circle cx="50" cy="82" r="3" fill="url(#g)" opacity="0.4"/>
  <circle cx="60" cy="82" r="3" fill="url(#g)" opacity="0.4"/>
  <path d="M70 12l4-4 4 4M74 8v10" stroke="url(#g)" stroke-width="2" fill="none" stroke-linecap="round"/>
</svg>