<svg height="512" viewBox="0 0 48 48" width="512" xmlns="http://www.w3.org/2000/svg">
    <defs>
        <linearGradient id="grad1" x1="0%" y1="0%" x2="100%" y2="0%">
            <stop offset="0%" style="stop-color:#9B62FF;stop-opacity:1"/>
            <stop offset="100%" style="stop-color:#5B03FF;stop-opacity:1"/>
        </linearGradient>
    </defs>
    <g fill="url(#grad1)">
        <!-- KPI Tile 1 -->
        <rect x="4" y="4" width="18" height="18" rx="3"/>
        <text x="8" y="14" font-family="Arial" font-size="8" font-weight="bold" fill="#fff" opacity="0.9">85%</text>
        <rect x="8" y="17" width="10" height="2" rx="1" fill="#fff" opacity="0.3"/>
        <!-- Mini chart bars -->
        <rect x="6" y="15" width="2" height="3" rx="0.5" fill="#fff" opacity="0.4"/>
        <rect x="9" y="13" width="2" height="5" rx="0.5" fill="#fff" opacity="0.4"/>
        <rect x="12" y="14" width="2" height="4" rx="0.5" fill="#fff" opacity="0.4"/>
        <rect x="15" y="11" width="2" height="7" rx="0.5" fill="#fff" opacity="0.5"/>
        
        <!-- KPI Tile 2 -->
        <rect x="26" y="4" width="18" height="18" rx="3"/>
        <text x="30" y="14" font-family="Arial" font-size="8" font-weight="bold" fill="#fff" opacity="0.9">2.4k</text>
        <rect x="30" y="17" width="10" height="2" rx="1" fill="#fff" opacity="0.3"/>
        <!-- Mini line chart -->
        <polyline points="28,16 31,14 34,15 37,11 40,13" stroke="#fff" stroke-width="1.5" fill="none" opacity="0.5" stroke-linecap="round"/>
        
        <!-- KPI Tile 3 -->
        <rect x="4" y="26" width="18" height="18" rx="3"/>
        <text x="8" y="36" font-family="Arial" font-size="8" font-weight="bold" fill="#fff" opacity="0.9">$12k</text>
        <rect x="8" y="39" width="10" height="2" rx="1" fill="#fff" opacity="0.3"/>
        <!-- Trend arrow up -->
        <path d="M17 32l3-4 3 4" stroke="#fff" stroke-width="1.5" fill="none" opacity="0.6" stroke-linecap="round" stroke-linejoin="round"/>
        
        <!-- KPI Tile 4 -->
        <rect x="26" y="26" width="18" height="18" rx="3"/>
        <text x="30" y="36" font-family="Arial" font-size="8" font-weight="bold" fill="#fff" opacity="0.9">+47</text>
        <rect x="30" y="39" width="10" height="2" rx="1" fill="#fff" opacity="0.3"/>
        <!-- Mini donut hint -->
        <circle cx="40" cy="32" r="4" stroke="#fff" stroke-width="2" fill="none" opacity="0.4"/>
        <path d="M40 28a4 4 0 0 1 3 6" stroke="#fff" stroke-width="2" fill="none" opacity="0.7" stroke-linecap="round"/>
    </g>
</svg>
