<svg xmlns="http://www.w3.org/2000/svg" viewBox="0 0 100 100">
  <defs><linearGradient id="g" x1="0%" y1="0%" x2="100%" y2="100%"><stop offset="0%" stop-color="#9B62FF"/><stop offset="100%" stop-color="#5B03FF"/></linearGradient></defs>
  <rect x="8" y="8" width="38" height="38" rx="4" fill="none" stroke="url(#g)" stroke-width="2"/>
  <rect x="12" y="12" width="30" height="18" rx="2" fill="url(#g)" opacity="0.25"/>
  <rect x="12" y="34" width="20" height="3" rx="1" fill="url(#g)" opacity="0.6"/>
  <rect x="12" y="40" width="14" height="3" rx="1" fill="url(#g)" opacity="0.4"/>
  <rect x="54" y="8" width="38" height="38" rx="4" fill="none" stroke="url(#g)" stroke-width="2"/>
  <rect x="58" y="12" width="30" height="18" rx="2" fill="url(#g)" opacity="0.25"/>
  <rect x="58" y="34" width="20" height="3" rx="1" fill="url(#g)" opacity="0.6"/>
  <rect x="58" y="40" width="14" height="3" rx="1" fill="url(#g)" opacity="0.4"/>
  <rect x="8" y="54" width="38" height="38" rx="4" fill="none" stroke="url(#g)" stroke-width="2"/>
  <rect x="12" y="58" width="30" height="18" rx="2" fill="url(#g)" opacity="0.25"/>
  <rect x="12" y="80" width="20" height="3" rx="1" fill="url(#g)" opacity="0.6"/>
  <rect x="12" y="86" width="14" height="3" rx="1" fill="url(#g)" opacity="0.4"/>
  <rect x="54" y="54" width="38" height="38" rx="4" fill="none" stroke="url(#g)" stroke-width="2"/>
  <rect x="58" y="58" width="30" height="18" rx="2" fill="url(#g)" opacity="0.25"/>
  <rect x="58" y="80" width="20" height="3" rx="1" fill="url(#g)" opacity="0.6"/>
  <rect x="58" y="86" width="14" height="3" rx="1" fill="url(#g)" opacity="0.4"/>
</svg>