<svg height="512" viewBox="0 0 48 48" width="512" xmlns="http://www.w3.org/2000/svg">
    <defs>
        <linearGradient id="grad1" x1="0%" y1="0%" x2="100%" y2="0%">
            <stop offset="0%" style="stop-color:#9B62FF;stop-opacity:1"/>
            <stop offset="100%" style="stop-color:#5B03FF;stop-opacity:1"/>
        </linearGradient>
    </defs>
    <g fill="url(#grad1)">
        <!-- Product card 1 -->
        <rect x="4" y="8" width="12" height="16" rx="2" opacity="0.9"/>
        <rect x="6" y="10" width="8" height="6" rx="1" fill="#fff" opacity="0.3"/>
        <rect x="6" y="18" width="6" height="1.5" rx="0.5" fill="#fff" opacity="0.5"/>
        <rect x="6" y="21" width="4" height="1" rx="0.5" fill="#fff" opacity="0.3"/>
        
        <!-- Product card 2 (center, highlighted) -->
        <rect x="18" y="6" width="12" height="20" rx="2"/>
        <rect x="20" y="8" width="8" height="8" rx="1" fill="#fff" opacity="0.3"/>
        <rect x="20" y="18" width="6" height="2" rx="0.5" fill="#fff" opacity="0.5"/>
        <rect x="20" y="22" width="4" height="1.5" rx="0.5" fill="#fff" opacity="0.3"/>
        
        <!-- Product card 3 -->
        <rect x="32" y="8" width="12" height="16" rx="2" opacity="0.9"/>
        <rect x="34" y="10" width="8" height="6" rx="1" fill="#fff" opacity="0.3"/>
        <rect x="34" y="18" width="6" height="1.5" rx="0.5" fill="#fff" opacity="0.5"/>
        <rect x="34" y="21" width="4" height="1" rx="0.5" fill="#fff" opacity="0.3"/>
        
        <!-- Slider arrows -->
        <path d="M2 16l-1.5 2 1.5 2" stroke="url(#grad1)" stroke-width="1.5" fill="none" stroke-linecap="round"/>
        <path d="M46 16l1.5 2-1.5 2" stroke="url(#grad1)" stroke-width="1.5" fill="none" stroke-linecap="round"/>
        
        <!-- Dots -->
        <circle cx="20" cy="32" r="1.5" opacity="0.4"/>
        <circle cx="24" cy="32" r="1.5"/>
        <circle cx="28" cy="32" r="1.5" opacity="0.4"/>
        
        <!-- Price tag -->
        <rect x="26" y="22" width="3" height="2" rx="0.5" fill="#fff" opacity="0.6"/>
        
        <!-- Cart icon on center card -->
        <circle cx="27" cy="11" r="3" fill="#fff" opacity="0.2"/>
        <path d="M26 10.5h2m-1-1v2" stroke="url(#grad1)" stroke-width="0.8" stroke-linecap="round"/>
    </g>
</svg>
