<svg height="512" viewBox="0 0 48 48" width="512" xmlns="http://www.w3.org/2000/svg">
    <defs>
        <linearGradient id="grad1" x1="0%" y1="0%" x2="100%" y2="0%">
            <stop offset="0%" style="stop-color:#9B62FF;stop-opacity:1"/>
            <stop offset="100%" style="stop-color:#5B03FF;stop-opacity:1"/>
        </linearGradient>
    </defs>
    <g fill="url(#grad1)">
        <!-- Row 1 -->
        <!-- Product card 1 -->
        <rect x="4" y="4" width="12" height="16" rx="2"/>
        <rect x="6" y="6" width="8" height="6" rx="1" fill="#fff" opacity="0.3"/>
        <rect x="6" y="14" width="5" height="1.5" rx="0.5" fill="#fff" opacity="0.5"/>
        <rect x="6" y="17" width="3" height="1" rx="0.5" fill="#fff" opacity="0.3"/>
        
        <!-- Product card 2 -->
        <rect x="18" y="4" width="12" height="16" rx="2"/>
        <rect x="20" y="6" width="8" height="6" rx="1" fill="#fff" opacity="0.3"/>
        <rect x="20" y="14" width="5" height="1.5" rx="0.5" fill="#fff" opacity="0.5"/>
        <rect x="20" y="17" width="3" height="1" rx="0.5" fill="#fff" opacity="0.3"/>
        
        <!-- Product card 3 -->
        <rect x="32" y="4" width="12" height="16" rx="2"/>
        <rect x="34" y="6" width="8" height="6" rx="1" fill="#fff" opacity="0.3"/>
        <rect x="34" y="14" width="5" height="1.5" rx="0.5" fill="#fff" opacity="0.5"/>
        <rect x="34" y="17" width="3" height="1" rx="0.5" fill="#fff" opacity="0.3"/>
        
        <!-- Row 2 -->
        <!-- Product card 4 -->
        <rect x="4" y="22" width="12" height="16" rx="2" opacity="0.7"/>
        <rect x="6" y="24" width="8" height="6" rx="1" fill="#fff" opacity="0.3"/>
        <rect x="6" y="32" width="5" height="1.5" rx="0.5" fill="#fff" opacity="0.5"/>
        <rect x="6" y="35" width="3" height="1" rx="0.5" fill="#fff" opacity="0.3"/>
        
        <!-- Product card 5 -->
        <rect x="18" y="22" width="12" height="16" rx="2" opacity="0.7"/>
        <rect x="20" y="24" width="8" height="6" rx="1" fill="#fff" opacity="0.3"/>
        <rect x="20" y="32" width="5" height="1.5" rx="0.5" fill="#fff" opacity="0.5"/>
        <rect x="20" y="35" width="3" height="1" rx="0.5" fill="#fff" opacity="0.3"/>
        
        <!-- Product card 6 -->
        <rect x="32" y="22" width="12" height="16" rx="2" opacity="0.7"/>
        <rect x="34" y="24" width="8" height="6" rx="1" fill="#fff" opacity="0.3"/>
        <rect x="34" y="32" width="5" height="1.5" rx="0.5" fill="#fff" opacity="0.5"/>
        <rect x="34" y="35" width="3" height="1" rx="0.5" fill="#fff" opacity="0.3"/>
        
        <!-- Cart icons -->
        <circle cx="13" cy="8" r="2" fill="#fff" opacity="0.2"/>
        <circle cx="27" cy="8" r="2" fill="#fff" opacity="0.2"/>
        <circle cx="41" cy="8" r="2" fill="#fff" opacity="0.2"/>
    </g>
</svg>
