<svg xmlns="http://www.w3.org/2000/svg" viewBox="0 0 100 100">
  <defs><linearGradient id="g" x1="0%" y1="0%" x2="100%" y2="100%"><stop offset="0%" stop-color="#9B62FF"/><stop offset="100%" stop-color="#5B03FF"/></linearGradient></defs>
  <rect x="12" y="15" width="40" height="45" rx="4" fill="url(#g)" opacity="0.2"/>
  <rect x="12" y="15" width="40" height="45" rx="4" fill="none" stroke="url(#g)" stroke-width="2"/>
  <path d="M18 50l10-14 8 10 10-12 6 16H18z" fill="url(#g)" opacity="0.5"/>
  <rect x="58" y="18" width="30" height="5" rx="2" fill="url(#g)" opacity="0.8"/>
  <rect x="58" y="28" width="25" height="3" rx="1" fill="url(#g)" opacity="0.5"/>
  <rect x="58" y="36" width="20" height="4" rx="2" fill="url(#g)" opacity="0.7"/>
  <rect x="58" y="48" width="28" height="10" rx="3" fill="url(#g)"/>
  <rect x="12" y="68" width="12" height="12" rx="2" fill="none" stroke="url(#g)" stroke-width="1.5" opacity="0.6"/>
  <rect x="28" y="68" width="12" height="12" rx="2" fill="none" stroke="url(#g)" stroke-width="1.5" opacity="0.6"/>
  <rect x="44" y="68" width="12" height="12" rx="2" fill="none" stroke="url(#g)" stroke-width="1.5" opacity="0.6"/>
</svg>