<svg xmlns="http://www.w3.org/2000/svg" viewBox="0 0 100 100">
  <defs><linearGradient id="g" x1="0%" y1="0%" x2="100%" y2="100%"><stop offset="0%" stop-color="#9B62FF"/><stop offset="100%" stop-color="#5B03FF"/></linearGradient></defs>
  <rect x="8" y="8" width="40" height="40" rx="4" fill="none" stroke="url(#g)" stroke-width="2"/>
  <rect x="12" y="12" width="32" height="20" rx="2" fill="url(#g)" opacity="0.3"/>
  <rect x="12" y="36" width="24" height="4" rx="1" fill="url(#g)" opacity="0.5"/>
  <rect x="12" y="43" width="16" height="3" rx="1" fill="url(#g)" opacity="0.3"/>
  <rect x="52" y="8" width="40" height="40" rx="4" fill="none" stroke="url(#g)" stroke-width="2"/>
  <rect x="56" y="12" width="32" height="20" rx="2" fill="url(#g)" opacity="0.3"/>
  <rect x="56" y="36" width="24" height="4" rx="1" fill="url(#g)" opacity="0.5"/>
  <rect x="56" y="43" width="16" height="3" rx="1" fill="url(#g)" opacity="0.3"/>
  <rect x="8" y="52" width="40" height="40" rx="4" fill="none" stroke="url(#g)" stroke-width="2"/>
  <rect x="12" y="56" width="32" height="20" rx="2" fill="url(#g)" opacity="0.3"/>
  <rect x="12" y="80" width="24" height="4" rx="1" fill="url(#g)" opacity="0.5"/>
  <rect x="12" y="87" width="16" height="3" rx="1" fill="url(#g)" opacity="0.3"/>
  <rect x="52" y="52" width="40" height="40" rx="4" fill="none" stroke="url(#g)" stroke-width="2"/>
  <rect x="56" y="56" width="32" height="20" rx="2" fill="url(#g)" opacity="0.3"/>
  <rect x="56" y="80" width="24" height="4" rx="1" fill="url(#g)" opacity="0.5"/>
  <rect x="56" y="87" width="16" height="3" rx="1" fill="url(#g)" opacity="0.3"/>
</svg>