<svg xmlns="http://www.w3.org/2000/svg" viewBox="0 0 100 100">
  <defs><linearGradient id="g" x1="0%" y1="0%" x2="100%" y2="100%"><stop offset="0%" stop-color="#9B62FF"/><stop offset="100%" stop-color="#5B03FF"/></linearGradient></defs>
  <circle cx="22" cy="35" r="10" fill="url(#g)" opacity="0.3"/>
  <circle cx="22" cy="33" r="4" fill="url(#g)" opacity="0.7"/>
  <path d="M16 40c0-3 2.7-5 6-5s6 2 6 5" fill="url(#g)" opacity="0.7"/>
  <rect x="38" y="30" width="25" height="4" rx="2" fill="url(#g)" opacity="0.6"/>
  <rect x="38" y="38" width="18" height="3" rx="1" fill="url(#g)" opacity="0.4"/>
  <circle cx="75" cy="35" r="8" fill="url(#g)" opacity="0.2"/>
  <path d="M75 30v5l3 3" stroke="url(#g)" stroke-width="2" fill="none" stroke-linecap="round"/>
  <rect x="15" y="55" width="70" height="1" fill="url(#g)" opacity="0.3"/>
  <circle cx="22" cy="70" r="6" fill="url(#g)" opacity="0.2"/>
  <path d="M20 70l2 2 4-4" stroke="url(#g)" stroke-width="1.5" fill="none" stroke-linecap="round"/>
  <rect x="32" y="67" width="35" height="4" rx="2" fill="url(#g)" opacity="0.5"/>
  <rect x="32" y="73" width="25" height="3" rx="1" fill="url(#g)" opacity="0.3"/>
</svg>