<svg xmlns="http://www.w3.org/2000/svg" viewBox="0 0 100 100">
  <defs><linearGradient id="g" x1="0%" y1="0%" x2="100%" y2="100%"><stop offset="0%" stop-color="#9B62FF"/><stop offset="100%" stop-color="#5B03FF"/></linearGradient></defs>
  <rect x="5" y="20" width="28" height="35" rx="3" fill="none" stroke="url(#g)" stroke-width="2"/>
  <rect x="8" y="23" width="22" height="14" rx="2" fill="url(#g)" opacity="0.3"/>
  <rect x="8" y="40" width="18" height="4" rx="1" fill="url(#g)" opacity="0.5"/>
  <rect x="8" y="47" width="12" height="3" rx="1" fill="url(#g)" opacity="0.3"/>
  <rect x="36" y="20" width="28" height="35" rx="3" fill="none" stroke="url(#g)" stroke-width="2"/>
  <rect x="39" y="23" width="22" height="14" rx="2" fill="url(#g)" opacity="0.3"/>
  <rect x="39" y="40" width="18" height="4" rx="1" fill="url(#g)" opacity="0.5"/>
  <rect x="39" y="47" width="12" height="3" rx="1" fill="url(#g)" opacity="0.3"/>
  <rect x="67" y="20" width="28" height="35" rx="3" fill="none" stroke="url(#g)" stroke-width="2"/>
  <rect x="70" y="23" width="22" height="14" rx="2" fill="url(#g)" opacity="0.3"/>
  <rect x="70" y="40" width="18" height="4" rx="1" fill="url(#g)" opacity="0.5"/>
  <rect x="70" y="47" width="12" height="3" rx="1" fill="url(#g)" opacity="0.3"/>
  <path d="M30 65h40M50 60v10" stroke="url(#g)" stroke-width="2" stroke-linecap="round" opacity="0.4"/>
  <text x="50" y="82" font-family="Arial" font-size="9" fill="url(#g)" text-anchor="middle" opacity="0.7">Related</text>
</svg>