<svg xmlns="http://www.w3.org/2000/svg" viewBox="0 0 100 100">
  <defs><linearGradient id="g" x1="0%" y1="0%" x2="100%" y2="100%"><stop offset="0%" stop-color="#9B62FF"/><stop offset="100%" stop-color="#5B03FF"/></linearGradient></defs>
  <rect x="10" y="15" width="80" height="70" rx="4" fill="none" stroke="url(#g)" stroke-width="2"/>
  <rect x="10" y="15" width="80" height="14" rx="4" fill="url(#g)" opacity="0.2"/>
  <line x1="10" y1="29" x2="90" y2="29" stroke="url(#g)" stroke-width="1.5"/>
  <rect x="15" y="35" width="14" height="14" rx="2" fill="url(#g)" opacity="0.3"/>
  <rect x="34" y="38" width="25" height="3" rx="1" fill="url(#g)" opacity="0.5"/>
  <rect x="34" y="44" width="15" height="3" rx="1" fill="url(#g)" opacity="0.4"/>
  <rect x="70" y="40" width="15" height="5" rx="1" fill="url(#g)" opacity="0.5"/>
  <line x1="10" y1="55" x2="90" y2="55" stroke="url(#g)" stroke-width="1" opacity="0.3"/>
  <rect x="15" y="61" width="14" height="14" rx="2" fill="url(#g)" opacity="0.3"/>
  <rect x="34" y="64" width="25" height="3" rx="1" fill="url(#g)" opacity="0.5"/>
  <rect x="34" y="70" width="15" height="3" rx="1" fill="url(#g)" opacity="0.4"/>
  <rect x="70" y="66" width="15" height="5" rx="1" fill="url(#g)" opacity="0.5"/>
</svg>