<svg xmlns="http://www.w3.org/2000/svg" viewBox="0 0 48 48">
    <defs>
        <linearGradient id="wcpn" x1="0%" y1="0%" x2="100%" y2="100%">
            <stop offset="0%" stop-color="#9B62FF"/>
            <stop offset="100%" stop-color="#5B03FF"/>
        </linearGradient>
    </defs>
    <path d="M10 14h28a2 2 0 0 1 2 2v4a4 4 0 0 0 0 8v4a2 2 0 0 1-2 2H10a2 2 0 0 1-2-2v-4a4 4 0 0 0 0-8v-4a2 2 0 0 1 2-2z" fill="none" stroke="url(#wcpn)" stroke-width="2"/>
    <path d="M20 14v20" stroke="url(#wcpn)" stroke-width="1.6" stroke-dasharray="3 3" opacity="0.7"/>
    <circle cx="30" cy="21" r="2" fill="url(#wcpn)"/>
    <circle cx="34.5" cy="27" r="2" fill="url(#wcpn)"/>
    <path d="M29 27.5l6.5-8" stroke="url(#wcpn)" stroke-width="1.8" stroke-linecap="round"/>
</svg>
