<svg xmlns="http://www.w3.org/2000/svg" viewBox="0 0 100 100">
  <defs><linearGradient id="g" x1="0%" y1="0%" x2="100%" y2="100%"><stop offset="0%" stop-color="#9B62FF"/><stop offset="100%" stop-color="#5B03FF"/></linearGradient></defs>
  <rect x="10" y="10" width="35" height="35" rx="4" fill="url(#g)" opacity="0.2"/>
  <rect x="10" y="10" width="35" height="35" rx="4" fill="none" stroke="url(#g)" stroke-width="2"/>
  <rect x="55" y="10" width="35" height="35" rx="4" fill="url(#g)" opacity="0.2"/>
  <rect x="55" y="10" width="35" height="35" rx="4" fill="none" stroke="url(#g)" stroke-width="2"/>
  <rect x="10" y="55" width="35" height="35" rx="4" fill="url(#g)" opacity="0.2"/>
  <rect x="10" y="55" width="35" height="35" rx="4" fill="none" stroke="url(#g)" stroke-width="2"/>
  <rect x="55" y="55" width="35" height="35" rx="4" fill="url(#g)" opacity="0.2"/>
  <rect x="55" y="55" width="35" height="35" rx="4" fill="none" stroke="url(#g)" stroke-width="2"/>
  <rect x="16" y="20" width="23" height="3" rx="1" fill="url(#g)" opacity="0.6"/>
  <rect x="16" y="26" width="18" height="3" rx="1" fill="url(#g)" opacity="0.4"/>
  <rect x="61" y="20" width="23" height="3" rx="1" fill="url(#g)" opacity="0.6"/>
  <rect x="61" y="26" width="18" height="3" rx="1" fill="url(#g)" opacity="0.4"/>
</svg>