<svg xmlns="http://www.w3.org/2000/svg" viewBox="0 0 100 100">
  <defs><linearGradient id="g" x1="0%" y1="0%" x2="100%" y2="100%"><stop offset="0%" stop-color="#9B62FF"/><stop offset="100%" stop-color="#5B03FF"/></linearGradient></defs>
  <rect x="15" y="15" width="70" height="70" rx="4" fill="none" stroke="url(#g)" stroke-width="2"/>
  <rect x="15" y="15" width="70" height="12" rx="4" fill="url(#g)" opacity="0.2"/>
  <rect x="22" y="33" width="12" height="3" rx="1" fill="url(#g)" opacity="0.6"/>
  <rect x="40" y="33" width="18" height="3" rx="1" fill="url(#g)" opacity="0.5"/>
  <rect x="65" y="33" width="15" height="3" rx="1" fill="url(#g)" opacity="0.5"/>
  <line x1="22" y1="42" x2="78" y2="42" stroke="url(#g)" stroke-width="1" opacity="0.3"/>
  <rect x="22" y="48" width="12" height="3" rx="1" fill="url(#g)" opacity="0.6"/>
  <rect x="40" y="48" width="18" height="3" rx="1" fill="url(#g)" opacity="0.5"/>
  <rect x="65" y="48" width="15" height="3" rx="1" fill="url(#g)" opacity="0.5"/>
  <line x1="22" y1="57" x2="78" y2="57" stroke="url(#g)" stroke-width="1" opacity="0.3"/>
  <rect x="22" y="63" width="12" height="3" rx="1" fill="url(#g)" opacity="0.6"/>
  <rect x="40" y="63" width="18" height="3" rx="1" fill="url(#g)" opacity="0.5"/>
  <rect x="65" y="63" width="15" height="3" rx="1" fill="url(#g)" opacity="0.5"/>
</svg>